<svg xmlns="http://www.w3.org/2000/svg" viewBox="0 0 1003.05 85.73"><defs><style>.cls-1{fill:#ff1493;}</style></defs><title>Asset 1</title><g id="Layer_2" data-name="Layer 2"><g id="Layer_1-2" data-name="Layer 1"><path class="cls-1" d="M0,84.31V1.42H38.48q14.33,0,21.67,7.34a19.14,19.14,0,0,1,5.69,14.09v.24q0,11.73-10.9,17.88,7.7,3,11.61,7.7t3.9,12.67v.23q0,11.13-8.28,16.94t-22.74,5.8ZM47.72,26.17v-.24a7.3,7.3,0,0,0-3.08-6.33q-3.07-2.19-8.88-2.19h-18V34.93H34.58Q47.72,34.93,47.72,26.17Zm4.62,32.92q0-9-13.5-9H17.76V68.32H39.43q12.9,0,12.91-9Z"/><path class="cls-1" d="M80.52,84.31V1.42H98.75V67.73h41.33V84.31Z"/><path class="cls-1" d="M141.73,84.31,177.26.83h16.81L229.6,84.31H210.53L203,65.72h-35l-7.57,18.59Zm32.69-34.7h22l-11-26.88Z"/><path class="cls-1" d="M237.41,84.31V1.42h16.81l38.84,51v-51h18V84.31H295.55L255.41,31.62V84.31Z"/><path class="cls-1" d="M326,84.31V1.42h18.24V37.65L377.84,1.42h22L366.12,36.59l35.29,47.72H379.5L353.81,49,344.22,59V84.31Z"/><path class="cls-1" d="M435.75,85.49a51,51,0,0,1-35.17-13.26l10.77-12.91q12.19,10.07,24.75,10.07,5.56,0,8.77-2.07a6.5,6.5,0,0,0,3.19-5.75v-.23a6.64,6.64,0,0,0-3.31-5.75q-3.31-2.19-13.38-4.79a98.8,98.8,0,0,1-11.49-3.49,38.88,38.88,0,0,1-8.35-4.56,17,17,0,0,1-5.8-7,25.62,25.62,0,0,1-1.83-10.24v-.24Q403.9,14,412,7.1T432.91.24a47.71,47.71,0,0,1,30.78,10.54l-9.47,13.73q-11.73-8.18-21.55-8.17c-3.4,0-6,.67-7.88,2A6.19,6.19,0,0,0,422,23.56v.24a6.56,6.56,0,0,0,3.44,6q3.42,2,14.44,4.85,13.5,3.56,19.9,9.06t6.39,15.81v.24q0,12.08-8.35,18.88T435.75,85.49Z"/><path class="cls-1" d="M477.07,84.31V1.42h33.87q14.69,0,23.21,7.87t8.52,20.79v.23q0,13.86-9.47,21.49t-24,7.64H495.31V84.31Zm18.24-41.09h14.44q6.63,0,10.54-3.55a11.63,11.63,0,0,0,3.91-9v-.24q0-6-3.91-9.29T509.4,17.88H495.31Z"/><path class="cls-1" d="M535.81,84.31,571.33.83h16.81l35.53,83.48H604.6L597,65.72H562L554.4,84.31Zm32.68-34.7h22l-11-26.88Z"/><path class="cls-1" d="M631.48,84.31V1.42h37.89q15.75,0,24.16,8.41,7.11,7.1,7.1,18.94V29q0,19.07-17.76,25.7l20.25,29.6H681.81L664.05,57.78H649.72V84.31Zm18.24-42.63h18.47q6.51,0,10.24-3.2A10.64,10.64,0,0,0,682.16,30v-.24q0-5.8-3.79-8.82t-10.54-3H649.72Z"/><path class="cls-1" d="M712.12,84.31V1.42H750q15.75,0,24.16,8.41,7.1,7.1,7.1,18.94V29q0,19.07-17.76,25.7l20.25,29.6H762.44L744.68,57.78H730.35V84.31Zm18.23-42.63h18.48q6.51,0,10.24-3.2A10.64,10.64,0,0,0,762.8,30v-.24q0-5.8-3.79-8.82t-10.54-3H730.35Z"/><path class="cls-1" d="M864.57,73.24Q852,85.73,833,85.73T801.58,73.36a41,41,0,0,1-12.5-30.26v-.24A41.16,41.16,0,0,1,801.7,12.49Q814.3,0,833.25,0t31.44,12.37a41,41,0,0,1,12.49,30.26v.23A41.14,41.14,0,0,1,864.57,73.24Zm-49.32-11.9a23.63,23.63,0,0,0,18,7.58q10.89,0,17.88-7.46a25.85,25.85,0,0,0,7-18.36v-.24A26,26,0,0,0,851,24.39a23.59,23.59,0,0,0-18-7.58q-10.9,0-17.88,7.46a25.86,25.86,0,0,0-7,18.36v.23A26,26,0,0,0,815.25,61.34Z"/><path class="cls-1" d="M905.6,84.9,877.3,1.42h19.54L914,57.55,932.6,1.18h15.63l18.59,56.37L984,1.42h19.06L974.75,84.9H958.89L940.18,30.67,921.47,84.9Z"/></g></g></svg>