<?xml version="1.0" encoding="utf-8"?>
<!-- Generator: Adobe Illustrator 22.1.0, SVG Export Plug-In . SVG Version: 6.00 Build 0)  -->
<svg version="1.1" id="Layer_1" xmlns="http://www.w3.org/2000/svg" xmlns:xlink="http://www.w3.org/1999/xlink" x="0px" y="0px"
	 viewBox="0 0 1003 85.7" style="enable-background:new 0 0 1003 85.7;" xml:space="preserve">
<style type="text/css">
	.st0{fill:#FFFFFF;}
</style>
<title>Asset 1</title>
<g id="Layer_2_1_">
	<g id="Layer_1-2">
		<path class="st0" d="M0,84.3V1.4h38.5c9.6,0,16.8,2.4,21.7,7.3c3.8,3.7,5.8,8.8,5.7,14.1v0.2c0,7.8-3.6,13.8-10.9,17.9
			c5.1,2,9,4.6,11.6,7.7c2.6,3.1,3.9,7.4,3.9,12.7v0.2c0,7.4-2.8,13.1-8.3,16.9c-5.5,3.9-13.1,5.8-22.7,5.8L0,84.3z M47.7,26.2v-0.2
			c0.1-2.5-1-4.9-3.1-6.3c-2-1.5-5-2.2-8.9-2.2h-18v17.5h16.8C43.3,34.9,47.7,32,47.7,26.2z M52.3,59.1c0-6-4.5-9-13.5-9H17.8v18.2
			h21.7c8.6,0,12.9-3,12.9-9V59.1z"/>
		<path class="st0" d="M80.5,84.3V1.4h18.2v66.3h41.3v16.6H80.5z"/>
		<path class="st0" d="M141.7,84.3l35.5-83.5h16.8l35.5,83.5h-19.1L203,65.7h-35l-7.6,18.6H141.7z M174.4,49.6h22l-11-26.9
			L174.4,49.6z"/>
		<path class="st0" d="M237.4,84.3V1.4h16.8l38.8,51v-51h18v82.9h-15.5l-40.1-52.7v52.7H237.4z"/>
		<path class="st0" d="M326,84.3V1.4h18.2v36.2l33.6-36.2h22l-33.7,35.2l35.3,47.7h-21.9L353.8,49l-9.6,10v25.3H326z"/>
		<path class="st0" d="M435.8,85.5c-13,0.2-25.6-4.5-35.2-13.3l10.8-12.9c8.1,6.7,16.4,10.1,24.8,10.1c3.7,0,6.6-0.7,8.8-2.1
			c2-1.2,3.2-3.4,3.2-5.8v-0.2c0-2.4-1.3-4.6-3.3-5.8c-2.2-1.5-6.7-3.1-13.4-4.8c-3.9-0.9-7.7-2.1-11.5-3.5c-3-1.2-5.8-2.7-8.4-4.6
			c-2.5-1.8-4.5-4.2-5.8-7c-1.3-3.3-1.9-6.7-1.8-10.2v-0.2c0-7.5,2.7-13.6,8.1-18.2s12.4-6.9,20.9-6.9C444.1,0,455,3.8,463.7,10.8
			l-9.5,13.7c-7.8-5.5-15-8.2-21.5-8.2c-3.4,0-6,0.7-7.9,2c-1.8,1.2-2.8,3.1-2.8,5.2v0.2c-0.1,2.5,1.2,4.8,3.4,6
			c2.3,1.3,7.1,3,14.4,4.8c9,2.4,15.6,5.4,19.9,9.1s6.4,8.9,6.4,15.8v0.2c0,8.1-2.8,14.3-8.4,18.9S444.9,85.5,435.8,85.5z"/>
		<path class="st0" d="M477.1,84.3V1.4h33.9c9.8,0,17.5,2.6,23.2,7.9s8.5,12.2,8.5,20.8v0.2c0,9.2-3.2,16.4-9.5,21.5
			s-14.3,7.6-24,7.6h-13.9v24.9H477.1z M495.3,43.2h14.4c4.4,0,7.9-1.2,10.5-3.5c2.6-2.3,4-5.6,3.9-9v-0.2c0-4-1.3-7.1-3.9-9.3
			c-2.6-2.2-6.2-3.3-10.9-3.3h-14.1V43.2z"/>
		<path class="st0" d="M535.8,84.3l35.5-83.5h16.8l35.5,83.5h-19.1L597,65.7h-35l-7.6,18.6H535.8z M568.5,49.6h22l-11-26.9
			L568.5,49.6z"/>
		<path class="st0" d="M631.5,84.3V1.4h37.9c10.5,0,18.6,2.8,24.2,8.4c4.7,4.7,7.1,11,7.1,18.9V29c0,12.7-5.9,21.3-17.8,25.7
			l20.3,29.6h-21.3L664,57.8h-14.3v26.5H631.5z M649.7,41.7h18.5c4.3,0,7.8-1.1,10.2-3.2c2.5-2.1,3.8-5.2,3.7-8.5v-0.2
			c0-3.9-1.3-6.8-3.8-8.8s-6-3-10.5-3h-18.1V41.7z"/>
		<path class="st0" d="M712.1,84.3V1.4H750c10.5,0,18.6,2.8,24.2,8.4c4.7,4.7,7.1,11,7.1,18.9V29c0,12.7-5.9,21.3-17.8,25.7
			l20.3,29.6h-21.3l-17.8-26.5h-14.3v26.5H712.1z M730.3,41.7h18.5c4.3,0,7.8-1.1,10.2-3.2c2.5-2.1,3.8-5.2,3.7-8.5v-0.2
			c0-3.9-1.3-6.8-3.8-8.8s-6-3-10.5-3h-18.1V41.7z"/>
		<path class="st0" d="M864.6,73.2c-8.4,8.3-18.9,12.5-31.6,12.5s-23.1-4.1-31.4-12.4c-8.2-7.9-12.7-18.9-12.5-30.3v-0.2
			c-0.2-11.4,4.4-22.4,12.6-30.4C810.1,4.2,820.6,0,833.3,0s23.1,4.1,31.4,12.4c8.2,7.9,12.7,18.9,12.5,30.3v0.2
			C877.4,54.3,872.8,65.3,864.6,73.2z M815.3,61.3c4.6,5,11.2,7.8,18,7.6c7.3,0,13.2-2.5,17.9-7.5c4.7-5,7.2-11.6,7-18.4v-0.2
			c0.2-6.9-2.4-13.5-7.1-18.5c-4.6-5-11.2-7.8-18-7.6c-7.3,0-13.2,2.5-17.9,7.5c-4.7,5-7.2,11.6-7,18.4v0.2
			C808,49.7,810.5,56.4,815.3,61.3z"/>
		<path class="st0" d="M905.6,84.9L877.3,1.4h19.5L914,57.5l18.6-56.4h15.6l18.6,56.4L984,1.4h19.1l-28.3,83.5h-15.9l-18.7-54.2
			l-18.7,54.2H905.6z"/>
	</g>
</g>
</svg>
